M48
; DRILL file {KiCad (5.1.4-0-10_14)} date 2019 September 29, Sunday 23:10:39
; FORMAT={2:4/ absolute / inch / keep zeros}
; #@! TF.CreationDate,2019-09-29T23:10:39+02:00
; #@! TF.GenerationSoftware,Kicad,Pcbnew,(5.1.4-0-10_14)
FMAT,2
INCH
T1C0.0157
T2C0.0236
T3C0.0394
T4C0.0945
T5C0.0984
T6C0.0354
T7C0.0787
T8C0.1024
T9C0.1260
%
G90
G05
T1
X038386Y-018701
X042323Y-018701
X044291Y-018701
X052165Y-018701
X052992Y-026063
X053425Y-028543
X054134Y-018701
X055236Y-026772
X061024Y-018701
X062992Y-018701
X066929Y-018701
T2
X034449Y-020669
X034449Y-022638
X034449Y-024606
X034449Y-026575
X034449Y-028543
X034449Y-030512
X034449Y-032480
X034449Y-034449
X034449Y-036417
X036417Y-018701
X037402Y-039370
X039370Y-039370
X041339Y-039370
X043307Y-039370
X045276Y-039370
X047244Y-039370
X049213Y-039370
X051181Y-039370
X053150Y-039370
X055118Y-027598
X055118Y-039370
X056969Y-027795
X057087Y-039370
X057559Y-027795
X059055Y-039370
X061024Y-039370
X062992Y-039370
X064961Y-039370
X066929Y-039370
X068898Y-021654
X068898Y-023622
X068898Y-025591
X068898Y-027559
X068898Y-029528
X068898Y-031496
X068898Y-033465
X068898Y-035433
X068898Y-037402
T3
X061811Y-032283
X061811Y-033268
X061811Y-034252
X061811Y-019685
X061811Y-020669
X061811Y-021654
X061811Y-025984
X061811Y-026969
X061811Y-027953
T4
X040689Y-019528
X045689Y-019528
T5
X056142Y-019547
X059142Y-019547
T6
X050709Y-019803
X053386Y-019803
T7
X064567Y-031535
X064567Y-035000
X064567Y-018937
X064567Y-025236
X064567Y-028701
X064567Y-022402
T8
X038819Y-023819
X038819Y-034843
X047559Y-029331
T9
X035039Y-038583
X035039Y-019291
X068898Y-038583
X068898Y-019291
T0
M30
