G04 #@! TF.GenerationSoftware,KiCad,Pcbnew,(5.1.4-0-10_14)*
G04 #@! TF.CreationDate,2019-09-30T22:31:01+02:00*
G04 #@! TF.ProjectId,APC,4150432e-6b69-4636-9164-5f7063625858,rev?*
G04 #@! TF.SameCoordinates,Original*
G04 #@! TF.FileFunction,Paste,Top*
G04 #@! TF.FilePolarity,Positive*
%FSLAX46Y46*%
G04 Gerber Fmt 4.6, Leading zero omitted, Abs format (unit mm)*
G04 Created by KiCad (PCBNEW (5.1.4-0-10_14)) date 2019-09-30 22:31:01*
%MOMM*%
%LPD*%
G04 APERTURE LIST*
%ADD10C,0.100000*%
%ADD11C,0.600000*%
%ADD12R,1.250000X2.500000*%
%ADD13C,0.950000*%
%ADD14C,1.600000*%
G04 APERTURE END LIST*
D10*
G36*
X138364703Y-73510722D02*
G01*
X138379264Y-73512882D01*
X138393543Y-73516459D01*
X138407403Y-73521418D01*
X138420710Y-73527712D01*
X138433336Y-73535280D01*
X138445159Y-73544048D01*
X138456066Y-73553934D01*
X138465952Y-73564841D01*
X138474720Y-73576664D01*
X138482288Y-73589290D01*
X138488582Y-73602597D01*
X138493541Y-73616457D01*
X138497118Y-73630736D01*
X138499278Y-73645297D01*
X138500000Y-73660000D01*
X138500000Y-73960000D01*
X138499278Y-73974703D01*
X138497118Y-73989264D01*
X138493541Y-74003543D01*
X138488582Y-74017403D01*
X138482288Y-74030710D01*
X138474720Y-74043336D01*
X138465952Y-74055159D01*
X138456066Y-74066066D01*
X138445159Y-74075952D01*
X138433336Y-74084720D01*
X138420710Y-74092288D01*
X138407403Y-74098582D01*
X138393543Y-74103541D01*
X138379264Y-74107118D01*
X138364703Y-74109278D01*
X138350000Y-74110000D01*
X136700000Y-74110000D01*
X136685297Y-74109278D01*
X136670736Y-74107118D01*
X136656457Y-74103541D01*
X136642597Y-74098582D01*
X136629290Y-74092288D01*
X136616664Y-74084720D01*
X136604841Y-74075952D01*
X136593934Y-74066066D01*
X136584048Y-74055159D01*
X136575280Y-74043336D01*
X136567712Y-74030710D01*
X136561418Y-74017403D01*
X136556459Y-74003543D01*
X136552882Y-73989264D01*
X136550722Y-73974703D01*
X136550000Y-73960000D01*
X136550000Y-73660000D01*
X136550722Y-73645297D01*
X136552882Y-73630736D01*
X136556459Y-73616457D01*
X136561418Y-73602597D01*
X136567712Y-73589290D01*
X136575280Y-73576664D01*
X136584048Y-73564841D01*
X136593934Y-73553934D01*
X136604841Y-73544048D01*
X136616664Y-73535280D01*
X136629290Y-73527712D01*
X136642597Y-73521418D01*
X136656457Y-73516459D01*
X136670736Y-73512882D01*
X136685297Y-73510722D01*
X136700000Y-73510000D01*
X138350000Y-73510000D01*
X138364703Y-73510722D01*
X138364703Y-73510722D01*
G37*
D11*
X137525000Y-73810000D03*
D10*
G36*
X138364703Y-72240722D02*
G01*
X138379264Y-72242882D01*
X138393543Y-72246459D01*
X138407403Y-72251418D01*
X138420710Y-72257712D01*
X138433336Y-72265280D01*
X138445159Y-72274048D01*
X138456066Y-72283934D01*
X138465952Y-72294841D01*
X138474720Y-72306664D01*
X138482288Y-72319290D01*
X138488582Y-72332597D01*
X138493541Y-72346457D01*
X138497118Y-72360736D01*
X138499278Y-72375297D01*
X138500000Y-72390000D01*
X138500000Y-72690000D01*
X138499278Y-72704703D01*
X138497118Y-72719264D01*
X138493541Y-72733543D01*
X138488582Y-72747403D01*
X138482288Y-72760710D01*
X138474720Y-72773336D01*
X138465952Y-72785159D01*
X138456066Y-72796066D01*
X138445159Y-72805952D01*
X138433336Y-72814720D01*
X138420710Y-72822288D01*
X138407403Y-72828582D01*
X138393543Y-72833541D01*
X138379264Y-72837118D01*
X138364703Y-72839278D01*
X138350000Y-72840000D01*
X136700000Y-72840000D01*
X136685297Y-72839278D01*
X136670736Y-72837118D01*
X136656457Y-72833541D01*
X136642597Y-72828582D01*
X136629290Y-72822288D01*
X136616664Y-72814720D01*
X136604841Y-72805952D01*
X136593934Y-72796066D01*
X136584048Y-72785159D01*
X136575280Y-72773336D01*
X136567712Y-72760710D01*
X136561418Y-72747403D01*
X136556459Y-72733543D01*
X136552882Y-72719264D01*
X136550722Y-72704703D01*
X136550000Y-72690000D01*
X136550000Y-72390000D01*
X136550722Y-72375297D01*
X136552882Y-72360736D01*
X136556459Y-72346457D01*
X136561418Y-72332597D01*
X136567712Y-72319290D01*
X136575280Y-72306664D01*
X136584048Y-72294841D01*
X136593934Y-72283934D01*
X136604841Y-72274048D01*
X136616664Y-72265280D01*
X136629290Y-72257712D01*
X136642597Y-72251418D01*
X136656457Y-72246459D01*
X136670736Y-72242882D01*
X136685297Y-72240722D01*
X136700000Y-72240000D01*
X138350000Y-72240000D01*
X138364703Y-72240722D01*
X138364703Y-72240722D01*
G37*
D11*
X137525000Y-72540000D03*
D10*
G36*
X138364703Y-70970722D02*
G01*
X138379264Y-70972882D01*
X138393543Y-70976459D01*
X138407403Y-70981418D01*
X138420710Y-70987712D01*
X138433336Y-70995280D01*
X138445159Y-71004048D01*
X138456066Y-71013934D01*
X138465952Y-71024841D01*
X138474720Y-71036664D01*
X138482288Y-71049290D01*
X138488582Y-71062597D01*
X138493541Y-71076457D01*
X138497118Y-71090736D01*
X138499278Y-71105297D01*
X138500000Y-71120000D01*
X138500000Y-71420000D01*
X138499278Y-71434703D01*
X138497118Y-71449264D01*
X138493541Y-71463543D01*
X138488582Y-71477403D01*
X138482288Y-71490710D01*
X138474720Y-71503336D01*
X138465952Y-71515159D01*
X138456066Y-71526066D01*
X138445159Y-71535952D01*
X138433336Y-71544720D01*
X138420710Y-71552288D01*
X138407403Y-71558582D01*
X138393543Y-71563541D01*
X138379264Y-71567118D01*
X138364703Y-71569278D01*
X138350000Y-71570000D01*
X136700000Y-71570000D01*
X136685297Y-71569278D01*
X136670736Y-71567118D01*
X136656457Y-71563541D01*
X136642597Y-71558582D01*
X136629290Y-71552288D01*
X136616664Y-71544720D01*
X136604841Y-71535952D01*
X136593934Y-71526066D01*
X136584048Y-71515159D01*
X136575280Y-71503336D01*
X136567712Y-71490710D01*
X136561418Y-71477403D01*
X136556459Y-71463543D01*
X136552882Y-71449264D01*
X136550722Y-71434703D01*
X136550000Y-71420000D01*
X136550000Y-71120000D01*
X136550722Y-71105297D01*
X136552882Y-71090736D01*
X136556459Y-71076457D01*
X136561418Y-71062597D01*
X136567712Y-71049290D01*
X136575280Y-71036664D01*
X136584048Y-71024841D01*
X136593934Y-71013934D01*
X136604841Y-71004048D01*
X136616664Y-70995280D01*
X136629290Y-70987712D01*
X136642597Y-70981418D01*
X136656457Y-70976459D01*
X136670736Y-70972882D01*
X136685297Y-70970722D01*
X136700000Y-70970000D01*
X138350000Y-70970000D01*
X138364703Y-70970722D01*
X138364703Y-70970722D01*
G37*
D11*
X137525000Y-71270000D03*
D10*
G36*
X138364703Y-69700722D02*
G01*
X138379264Y-69702882D01*
X138393543Y-69706459D01*
X138407403Y-69711418D01*
X138420710Y-69717712D01*
X138433336Y-69725280D01*
X138445159Y-69734048D01*
X138456066Y-69743934D01*
X138465952Y-69754841D01*
X138474720Y-69766664D01*
X138482288Y-69779290D01*
X138488582Y-69792597D01*
X138493541Y-69806457D01*
X138497118Y-69820736D01*
X138499278Y-69835297D01*
X138500000Y-69850000D01*
X138500000Y-70150000D01*
X138499278Y-70164703D01*
X138497118Y-70179264D01*
X138493541Y-70193543D01*
X138488582Y-70207403D01*
X138482288Y-70220710D01*
X138474720Y-70233336D01*
X138465952Y-70245159D01*
X138456066Y-70256066D01*
X138445159Y-70265952D01*
X138433336Y-70274720D01*
X138420710Y-70282288D01*
X138407403Y-70288582D01*
X138393543Y-70293541D01*
X138379264Y-70297118D01*
X138364703Y-70299278D01*
X138350000Y-70300000D01*
X136700000Y-70300000D01*
X136685297Y-70299278D01*
X136670736Y-70297118D01*
X136656457Y-70293541D01*
X136642597Y-70288582D01*
X136629290Y-70282288D01*
X136616664Y-70274720D01*
X136604841Y-70265952D01*
X136593934Y-70256066D01*
X136584048Y-70245159D01*
X136575280Y-70233336D01*
X136567712Y-70220710D01*
X136561418Y-70207403D01*
X136556459Y-70193543D01*
X136552882Y-70179264D01*
X136550722Y-70164703D01*
X136550000Y-70150000D01*
X136550000Y-69850000D01*
X136550722Y-69835297D01*
X136552882Y-69820736D01*
X136556459Y-69806457D01*
X136561418Y-69792597D01*
X136567712Y-69779290D01*
X136575280Y-69766664D01*
X136584048Y-69754841D01*
X136593934Y-69743934D01*
X136604841Y-69734048D01*
X136616664Y-69725280D01*
X136629290Y-69717712D01*
X136642597Y-69711418D01*
X136656457Y-69706459D01*
X136670736Y-69702882D01*
X136685297Y-69700722D01*
X136700000Y-69700000D01*
X138350000Y-69700000D01*
X138364703Y-69700722D01*
X138364703Y-69700722D01*
G37*
D11*
X137525000Y-70000000D03*
D10*
G36*
X138364703Y-68430722D02*
G01*
X138379264Y-68432882D01*
X138393543Y-68436459D01*
X138407403Y-68441418D01*
X138420710Y-68447712D01*
X138433336Y-68455280D01*
X138445159Y-68464048D01*
X138456066Y-68473934D01*
X138465952Y-68484841D01*
X138474720Y-68496664D01*
X138482288Y-68509290D01*
X138488582Y-68522597D01*
X138493541Y-68536457D01*
X138497118Y-68550736D01*
X138499278Y-68565297D01*
X138500000Y-68580000D01*
X138500000Y-68880000D01*
X138499278Y-68894703D01*
X138497118Y-68909264D01*
X138493541Y-68923543D01*
X138488582Y-68937403D01*
X138482288Y-68950710D01*
X138474720Y-68963336D01*
X138465952Y-68975159D01*
X138456066Y-68986066D01*
X138445159Y-68995952D01*
X138433336Y-69004720D01*
X138420710Y-69012288D01*
X138407403Y-69018582D01*
X138393543Y-69023541D01*
X138379264Y-69027118D01*
X138364703Y-69029278D01*
X138350000Y-69030000D01*
X136700000Y-69030000D01*
X136685297Y-69029278D01*
X136670736Y-69027118D01*
X136656457Y-69023541D01*
X136642597Y-69018582D01*
X136629290Y-69012288D01*
X136616664Y-69004720D01*
X136604841Y-68995952D01*
X136593934Y-68986066D01*
X136584048Y-68975159D01*
X136575280Y-68963336D01*
X136567712Y-68950710D01*
X136561418Y-68937403D01*
X136556459Y-68923543D01*
X136552882Y-68909264D01*
X136550722Y-68894703D01*
X136550000Y-68880000D01*
X136550000Y-68580000D01*
X136550722Y-68565297D01*
X136552882Y-68550736D01*
X136556459Y-68536457D01*
X136561418Y-68522597D01*
X136567712Y-68509290D01*
X136575280Y-68496664D01*
X136584048Y-68484841D01*
X136593934Y-68473934D01*
X136604841Y-68464048D01*
X136616664Y-68455280D01*
X136629290Y-68447712D01*
X136642597Y-68441418D01*
X136656457Y-68436459D01*
X136670736Y-68432882D01*
X136685297Y-68430722D01*
X136700000Y-68430000D01*
X138350000Y-68430000D01*
X138364703Y-68430722D01*
X138364703Y-68430722D01*
G37*
D11*
X137525000Y-68730000D03*
D10*
G36*
X138364703Y-67160722D02*
G01*
X138379264Y-67162882D01*
X138393543Y-67166459D01*
X138407403Y-67171418D01*
X138420710Y-67177712D01*
X138433336Y-67185280D01*
X138445159Y-67194048D01*
X138456066Y-67203934D01*
X138465952Y-67214841D01*
X138474720Y-67226664D01*
X138482288Y-67239290D01*
X138488582Y-67252597D01*
X138493541Y-67266457D01*
X138497118Y-67280736D01*
X138499278Y-67295297D01*
X138500000Y-67310000D01*
X138500000Y-67610000D01*
X138499278Y-67624703D01*
X138497118Y-67639264D01*
X138493541Y-67653543D01*
X138488582Y-67667403D01*
X138482288Y-67680710D01*
X138474720Y-67693336D01*
X138465952Y-67705159D01*
X138456066Y-67716066D01*
X138445159Y-67725952D01*
X138433336Y-67734720D01*
X138420710Y-67742288D01*
X138407403Y-67748582D01*
X138393543Y-67753541D01*
X138379264Y-67757118D01*
X138364703Y-67759278D01*
X138350000Y-67760000D01*
X136700000Y-67760000D01*
X136685297Y-67759278D01*
X136670736Y-67757118D01*
X136656457Y-67753541D01*
X136642597Y-67748582D01*
X136629290Y-67742288D01*
X136616664Y-67734720D01*
X136604841Y-67725952D01*
X136593934Y-67716066D01*
X136584048Y-67705159D01*
X136575280Y-67693336D01*
X136567712Y-67680710D01*
X136561418Y-67667403D01*
X136556459Y-67653543D01*
X136552882Y-67639264D01*
X136550722Y-67624703D01*
X136550000Y-67610000D01*
X136550000Y-67310000D01*
X136550722Y-67295297D01*
X136552882Y-67280736D01*
X136556459Y-67266457D01*
X136561418Y-67252597D01*
X136567712Y-67239290D01*
X136575280Y-67226664D01*
X136584048Y-67214841D01*
X136593934Y-67203934D01*
X136604841Y-67194048D01*
X136616664Y-67185280D01*
X136629290Y-67177712D01*
X136642597Y-67171418D01*
X136656457Y-67166459D01*
X136670736Y-67162882D01*
X136685297Y-67160722D01*
X136700000Y-67160000D01*
X138350000Y-67160000D01*
X138364703Y-67160722D01*
X138364703Y-67160722D01*
G37*
D11*
X137525000Y-67460000D03*
D10*
G36*
X138364703Y-65890722D02*
G01*
X138379264Y-65892882D01*
X138393543Y-65896459D01*
X138407403Y-65901418D01*
X138420710Y-65907712D01*
X138433336Y-65915280D01*
X138445159Y-65924048D01*
X138456066Y-65933934D01*
X138465952Y-65944841D01*
X138474720Y-65956664D01*
X138482288Y-65969290D01*
X138488582Y-65982597D01*
X138493541Y-65996457D01*
X138497118Y-66010736D01*
X138499278Y-66025297D01*
X138500000Y-66040000D01*
X138500000Y-66340000D01*
X138499278Y-66354703D01*
X138497118Y-66369264D01*
X138493541Y-66383543D01*
X138488582Y-66397403D01*
X138482288Y-66410710D01*
X138474720Y-66423336D01*
X138465952Y-66435159D01*
X138456066Y-66446066D01*
X138445159Y-66455952D01*
X138433336Y-66464720D01*
X138420710Y-66472288D01*
X138407403Y-66478582D01*
X138393543Y-66483541D01*
X138379264Y-66487118D01*
X138364703Y-66489278D01*
X138350000Y-66490000D01*
X136700000Y-66490000D01*
X136685297Y-66489278D01*
X136670736Y-66487118D01*
X136656457Y-66483541D01*
X136642597Y-66478582D01*
X136629290Y-66472288D01*
X136616664Y-66464720D01*
X136604841Y-66455952D01*
X136593934Y-66446066D01*
X136584048Y-66435159D01*
X136575280Y-66423336D01*
X136567712Y-66410710D01*
X136561418Y-66397403D01*
X136556459Y-66383543D01*
X136552882Y-66369264D01*
X136550722Y-66354703D01*
X136550000Y-66340000D01*
X136550000Y-66040000D01*
X136550722Y-66025297D01*
X136552882Y-66010736D01*
X136556459Y-65996457D01*
X136561418Y-65982597D01*
X136567712Y-65969290D01*
X136575280Y-65956664D01*
X136584048Y-65944841D01*
X136593934Y-65933934D01*
X136604841Y-65924048D01*
X136616664Y-65915280D01*
X136629290Y-65907712D01*
X136642597Y-65901418D01*
X136656457Y-65896459D01*
X136670736Y-65892882D01*
X136685297Y-65890722D01*
X136700000Y-65890000D01*
X138350000Y-65890000D01*
X138364703Y-65890722D01*
X138364703Y-65890722D01*
G37*
D11*
X137525000Y-66190000D03*
D10*
G36*
X143314703Y-65890722D02*
G01*
X143329264Y-65892882D01*
X143343543Y-65896459D01*
X143357403Y-65901418D01*
X143370710Y-65907712D01*
X143383336Y-65915280D01*
X143395159Y-65924048D01*
X143406066Y-65933934D01*
X143415952Y-65944841D01*
X143424720Y-65956664D01*
X143432288Y-65969290D01*
X143438582Y-65982597D01*
X143443541Y-65996457D01*
X143447118Y-66010736D01*
X143449278Y-66025297D01*
X143450000Y-66040000D01*
X143450000Y-66340000D01*
X143449278Y-66354703D01*
X143447118Y-66369264D01*
X143443541Y-66383543D01*
X143438582Y-66397403D01*
X143432288Y-66410710D01*
X143424720Y-66423336D01*
X143415952Y-66435159D01*
X143406066Y-66446066D01*
X143395159Y-66455952D01*
X143383336Y-66464720D01*
X143370710Y-66472288D01*
X143357403Y-66478582D01*
X143343543Y-66483541D01*
X143329264Y-66487118D01*
X143314703Y-66489278D01*
X143300000Y-66490000D01*
X141650000Y-66490000D01*
X141635297Y-66489278D01*
X141620736Y-66487118D01*
X141606457Y-66483541D01*
X141592597Y-66478582D01*
X141579290Y-66472288D01*
X141566664Y-66464720D01*
X141554841Y-66455952D01*
X141543934Y-66446066D01*
X141534048Y-66435159D01*
X141525280Y-66423336D01*
X141517712Y-66410710D01*
X141511418Y-66397403D01*
X141506459Y-66383543D01*
X141502882Y-66369264D01*
X141500722Y-66354703D01*
X141500000Y-66340000D01*
X141500000Y-66040000D01*
X141500722Y-66025297D01*
X141502882Y-66010736D01*
X141506459Y-65996457D01*
X141511418Y-65982597D01*
X141517712Y-65969290D01*
X141525280Y-65956664D01*
X141534048Y-65944841D01*
X141543934Y-65933934D01*
X141554841Y-65924048D01*
X141566664Y-65915280D01*
X141579290Y-65907712D01*
X141592597Y-65901418D01*
X141606457Y-65896459D01*
X141620736Y-65892882D01*
X141635297Y-65890722D01*
X141650000Y-65890000D01*
X143300000Y-65890000D01*
X143314703Y-65890722D01*
X143314703Y-65890722D01*
G37*
D11*
X142475000Y-66190000D03*
D10*
G36*
X143314703Y-67160722D02*
G01*
X143329264Y-67162882D01*
X143343543Y-67166459D01*
X143357403Y-67171418D01*
X143370710Y-67177712D01*
X143383336Y-67185280D01*
X143395159Y-67194048D01*
X143406066Y-67203934D01*
X143415952Y-67214841D01*
X143424720Y-67226664D01*
X143432288Y-67239290D01*
X143438582Y-67252597D01*
X143443541Y-67266457D01*
X143447118Y-67280736D01*
X143449278Y-67295297D01*
X143450000Y-67310000D01*
X143450000Y-67610000D01*
X143449278Y-67624703D01*
X143447118Y-67639264D01*
X143443541Y-67653543D01*
X143438582Y-67667403D01*
X143432288Y-67680710D01*
X143424720Y-67693336D01*
X143415952Y-67705159D01*
X143406066Y-67716066D01*
X143395159Y-67725952D01*
X143383336Y-67734720D01*
X143370710Y-67742288D01*
X143357403Y-67748582D01*
X143343543Y-67753541D01*
X143329264Y-67757118D01*
X143314703Y-67759278D01*
X143300000Y-67760000D01*
X141650000Y-67760000D01*
X141635297Y-67759278D01*
X141620736Y-67757118D01*
X141606457Y-67753541D01*
X141592597Y-67748582D01*
X141579290Y-67742288D01*
X141566664Y-67734720D01*
X141554841Y-67725952D01*
X141543934Y-67716066D01*
X141534048Y-67705159D01*
X141525280Y-67693336D01*
X141517712Y-67680710D01*
X141511418Y-67667403D01*
X141506459Y-67653543D01*
X141502882Y-67639264D01*
X141500722Y-67624703D01*
X141500000Y-67610000D01*
X141500000Y-67310000D01*
X141500722Y-67295297D01*
X141502882Y-67280736D01*
X141506459Y-67266457D01*
X141511418Y-67252597D01*
X141517712Y-67239290D01*
X141525280Y-67226664D01*
X141534048Y-67214841D01*
X141543934Y-67203934D01*
X141554841Y-67194048D01*
X141566664Y-67185280D01*
X141579290Y-67177712D01*
X141592597Y-67171418D01*
X141606457Y-67166459D01*
X141620736Y-67162882D01*
X141635297Y-67160722D01*
X141650000Y-67160000D01*
X143300000Y-67160000D01*
X143314703Y-67160722D01*
X143314703Y-67160722D01*
G37*
D11*
X142475000Y-67460000D03*
D10*
G36*
X143314703Y-68430722D02*
G01*
X143329264Y-68432882D01*
X143343543Y-68436459D01*
X143357403Y-68441418D01*
X143370710Y-68447712D01*
X143383336Y-68455280D01*
X143395159Y-68464048D01*
X143406066Y-68473934D01*
X143415952Y-68484841D01*
X143424720Y-68496664D01*
X143432288Y-68509290D01*
X143438582Y-68522597D01*
X143443541Y-68536457D01*
X143447118Y-68550736D01*
X143449278Y-68565297D01*
X143450000Y-68580000D01*
X143450000Y-68880000D01*
X143449278Y-68894703D01*
X143447118Y-68909264D01*
X143443541Y-68923543D01*
X143438582Y-68937403D01*
X143432288Y-68950710D01*
X143424720Y-68963336D01*
X143415952Y-68975159D01*
X143406066Y-68986066D01*
X143395159Y-68995952D01*
X143383336Y-69004720D01*
X143370710Y-69012288D01*
X143357403Y-69018582D01*
X143343543Y-69023541D01*
X143329264Y-69027118D01*
X143314703Y-69029278D01*
X143300000Y-69030000D01*
X141650000Y-69030000D01*
X141635297Y-69029278D01*
X141620736Y-69027118D01*
X141606457Y-69023541D01*
X141592597Y-69018582D01*
X141579290Y-69012288D01*
X141566664Y-69004720D01*
X141554841Y-68995952D01*
X141543934Y-68986066D01*
X141534048Y-68975159D01*
X141525280Y-68963336D01*
X141517712Y-68950710D01*
X141511418Y-68937403D01*
X141506459Y-68923543D01*
X141502882Y-68909264D01*
X141500722Y-68894703D01*
X141500000Y-68880000D01*
X141500000Y-68580000D01*
X141500722Y-68565297D01*
X141502882Y-68550736D01*
X141506459Y-68536457D01*
X141511418Y-68522597D01*
X141517712Y-68509290D01*
X141525280Y-68496664D01*
X141534048Y-68484841D01*
X141543934Y-68473934D01*
X141554841Y-68464048D01*
X141566664Y-68455280D01*
X141579290Y-68447712D01*
X141592597Y-68441418D01*
X141606457Y-68436459D01*
X141620736Y-68432882D01*
X141635297Y-68430722D01*
X141650000Y-68430000D01*
X143300000Y-68430000D01*
X143314703Y-68430722D01*
X143314703Y-68430722D01*
G37*
D11*
X142475000Y-68730000D03*
D10*
G36*
X143314703Y-69700722D02*
G01*
X143329264Y-69702882D01*
X143343543Y-69706459D01*
X143357403Y-69711418D01*
X143370710Y-69717712D01*
X143383336Y-69725280D01*
X143395159Y-69734048D01*
X143406066Y-69743934D01*
X143415952Y-69754841D01*
X143424720Y-69766664D01*
X143432288Y-69779290D01*
X143438582Y-69792597D01*
X143443541Y-69806457D01*
X143447118Y-69820736D01*
X143449278Y-69835297D01*
X143450000Y-69850000D01*
X143450000Y-70150000D01*
X143449278Y-70164703D01*
X143447118Y-70179264D01*
X143443541Y-70193543D01*
X143438582Y-70207403D01*
X143432288Y-70220710D01*
X143424720Y-70233336D01*
X143415952Y-70245159D01*
X143406066Y-70256066D01*
X143395159Y-70265952D01*
X143383336Y-70274720D01*
X143370710Y-70282288D01*
X143357403Y-70288582D01*
X143343543Y-70293541D01*
X143329264Y-70297118D01*
X143314703Y-70299278D01*
X143300000Y-70300000D01*
X141650000Y-70300000D01*
X141635297Y-70299278D01*
X141620736Y-70297118D01*
X141606457Y-70293541D01*
X141592597Y-70288582D01*
X141579290Y-70282288D01*
X141566664Y-70274720D01*
X141554841Y-70265952D01*
X141543934Y-70256066D01*
X141534048Y-70245159D01*
X141525280Y-70233336D01*
X141517712Y-70220710D01*
X141511418Y-70207403D01*
X141506459Y-70193543D01*
X141502882Y-70179264D01*
X141500722Y-70164703D01*
X141500000Y-70150000D01*
X141500000Y-69850000D01*
X141500722Y-69835297D01*
X141502882Y-69820736D01*
X141506459Y-69806457D01*
X141511418Y-69792597D01*
X141517712Y-69779290D01*
X141525280Y-69766664D01*
X141534048Y-69754841D01*
X141543934Y-69743934D01*
X141554841Y-69734048D01*
X141566664Y-69725280D01*
X141579290Y-69717712D01*
X141592597Y-69711418D01*
X141606457Y-69706459D01*
X141620736Y-69702882D01*
X141635297Y-69700722D01*
X141650000Y-69700000D01*
X143300000Y-69700000D01*
X143314703Y-69700722D01*
X143314703Y-69700722D01*
G37*
D11*
X142475000Y-70000000D03*
D10*
G36*
X143314703Y-70970722D02*
G01*
X143329264Y-70972882D01*
X143343543Y-70976459D01*
X143357403Y-70981418D01*
X143370710Y-70987712D01*
X143383336Y-70995280D01*
X143395159Y-71004048D01*
X143406066Y-71013934D01*
X143415952Y-71024841D01*
X143424720Y-71036664D01*
X143432288Y-71049290D01*
X143438582Y-71062597D01*
X143443541Y-71076457D01*
X143447118Y-71090736D01*
X143449278Y-71105297D01*
X143450000Y-71120000D01*
X143450000Y-71420000D01*
X143449278Y-71434703D01*
X143447118Y-71449264D01*
X143443541Y-71463543D01*
X143438582Y-71477403D01*
X143432288Y-71490710D01*
X143424720Y-71503336D01*
X143415952Y-71515159D01*
X143406066Y-71526066D01*
X143395159Y-71535952D01*
X143383336Y-71544720D01*
X143370710Y-71552288D01*
X143357403Y-71558582D01*
X143343543Y-71563541D01*
X143329264Y-71567118D01*
X143314703Y-71569278D01*
X143300000Y-71570000D01*
X141650000Y-71570000D01*
X141635297Y-71569278D01*
X141620736Y-71567118D01*
X141606457Y-71563541D01*
X141592597Y-71558582D01*
X141579290Y-71552288D01*
X141566664Y-71544720D01*
X141554841Y-71535952D01*
X141543934Y-71526066D01*
X141534048Y-71515159D01*
X141525280Y-71503336D01*
X141517712Y-71490710D01*
X141511418Y-71477403D01*
X141506459Y-71463543D01*
X141502882Y-71449264D01*
X141500722Y-71434703D01*
X141500000Y-71420000D01*
X141500000Y-71120000D01*
X141500722Y-71105297D01*
X141502882Y-71090736D01*
X141506459Y-71076457D01*
X141511418Y-71062597D01*
X141517712Y-71049290D01*
X141525280Y-71036664D01*
X141534048Y-71024841D01*
X141543934Y-71013934D01*
X141554841Y-71004048D01*
X141566664Y-70995280D01*
X141579290Y-70987712D01*
X141592597Y-70981418D01*
X141606457Y-70976459D01*
X141620736Y-70972882D01*
X141635297Y-70970722D01*
X141650000Y-70970000D01*
X143300000Y-70970000D01*
X143314703Y-70970722D01*
X143314703Y-70970722D01*
G37*
D11*
X142475000Y-71270000D03*
D10*
G36*
X143314703Y-72240722D02*
G01*
X143329264Y-72242882D01*
X143343543Y-72246459D01*
X143357403Y-72251418D01*
X143370710Y-72257712D01*
X143383336Y-72265280D01*
X143395159Y-72274048D01*
X143406066Y-72283934D01*
X143415952Y-72294841D01*
X143424720Y-72306664D01*
X143432288Y-72319290D01*
X143438582Y-72332597D01*
X143443541Y-72346457D01*
X143447118Y-72360736D01*
X143449278Y-72375297D01*
X143450000Y-72390000D01*
X143450000Y-72690000D01*
X143449278Y-72704703D01*
X143447118Y-72719264D01*
X143443541Y-72733543D01*
X143438582Y-72747403D01*
X143432288Y-72760710D01*
X143424720Y-72773336D01*
X143415952Y-72785159D01*
X143406066Y-72796066D01*
X143395159Y-72805952D01*
X143383336Y-72814720D01*
X143370710Y-72822288D01*
X143357403Y-72828582D01*
X143343543Y-72833541D01*
X143329264Y-72837118D01*
X143314703Y-72839278D01*
X143300000Y-72840000D01*
X141650000Y-72840000D01*
X141635297Y-72839278D01*
X141620736Y-72837118D01*
X141606457Y-72833541D01*
X141592597Y-72828582D01*
X141579290Y-72822288D01*
X141566664Y-72814720D01*
X141554841Y-72805952D01*
X141543934Y-72796066D01*
X141534048Y-72785159D01*
X141525280Y-72773336D01*
X141517712Y-72760710D01*
X141511418Y-72747403D01*
X141506459Y-72733543D01*
X141502882Y-72719264D01*
X141500722Y-72704703D01*
X141500000Y-72690000D01*
X141500000Y-72390000D01*
X141500722Y-72375297D01*
X141502882Y-72360736D01*
X141506459Y-72346457D01*
X141511418Y-72332597D01*
X141517712Y-72319290D01*
X141525280Y-72306664D01*
X141534048Y-72294841D01*
X141543934Y-72283934D01*
X141554841Y-72274048D01*
X141566664Y-72265280D01*
X141579290Y-72257712D01*
X141592597Y-72251418D01*
X141606457Y-72246459D01*
X141620736Y-72242882D01*
X141635297Y-72240722D01*
X141650000Y-72240000D01*
X143300000Y-72240000D01*
X143314703Y-72240722D01*
X143314703Y-72240722D01*
G37*
D11*
X142475000Y-72540000D03*
D10*
G36*
X143314703Y-73510722D02*
G01*
X143329264Y-73512882D01*
X143343543Y-73516459D01*
X143357403Y-73521418D01*
X143370710Y-73527712D01*
X143383336Y-73535280D01*
X143395159Y-73544048D01*
X143406066Y-73553934D01*
X143415952Y-73564841D01*
X143424720Y-73576664D01*
X143432288Y-73589290D01*
X143438582Y-73602597D01*
X143443541Y-73616457D01*
X143447118Y-73630736D01*
X143449278Y-73645297D01*
X143450000Y-73660000D01*
X143450000Y-73960000D01*
X143449278Y-73974703D01*
X143447118Y-73989264D01*
X143443541Y-74003543D01*
X143438582Y-74017403D01*
X143432288Y-74030710D01*
X143424720Y-74043336D01*
X143415952Y-74055159D01*
X143406066Y-74066066D01*
X143395159Y-74075952D01*
X143383336Y-74084720D01*
X143370710Y-74092288D01*
X143357403Y-74098582D01*
X143343543Y-74103541D01*
X143329264Y-74107118D01*
X143314703Y-74109278D01*
X143300000Y-74110000D01*
X141650000Y-74110000D01*
X141635297Y-74109278D01*
X141620736Y-74107118D01*
X141606457Y-74103541D01*
X141592597Y-74098582D01*
X141579290Y-74092288D01*
X141566664Y-74084720D01*
X141554841Y-74075952D01*
X141543934Y-74066066D01*
X141534048Y-74055159D01*
X141525280Y-74043336D01*
X141517712Y-74030710D01*
X141511418Y-74017403D01*
X141506459Y-74003543D01*
X141502882Y-73989264D01*
X141500722Y-73974703D01*
X141500000Y-73960000D01*
X141500000Y-73660000D01*
X141500722Y-73645297D01*
X141502882Y-73630736D01*
X141506459Y-73616457D01*
X141511418Y-73602597D01*
X141517712Y-73589290D01*
X141525280Y-73576664D01*
X141534048Y-73564841D01*
X141543934Y-73553934D01*
X141554841Y-73544048D01*
X141566664Y-73535280D01*
X141579290Y-73527712D01*
X141592597Y-73521418D01*
X141606457Y-73516459D01*
X141620736Y-73512882D01*
X141635297Y-73510722D01*
X141650000Y-73510000D01*
X143300000Y-73510000D01*
X143314703Y-73510722D01*
X143314703Y-73510722D01*
G37*
D11*
X142475000Y-73810000D03*
D12*
X129700000Y-53050000D03*
X132200000Y-53050000D03*
X134700000Y-53050000D03*
D10*
G36*
X148260779Y-72101144D02*
G01*
X148283834Y-72104563D01*
X148306443Y-72110227D01*
X148328387Y-72118079D01*
X148349457Y-72128044D01*
X148369448Y-72140026D01*
X148388168Y-72153910D01*
X148405438Y-72169562D01*
X148421090Y-72186832D01*
X148434974Y-72205552D01*
X148446956Y-72225543D01*
X148456921Y-72246613D01*
X148464773Y-72268557D01*
X148470437Y-72291166D01*
X148473856Y-72314221D01*
X148475000Y-72337500D01*
X148475000Y-72912500D01*
X148473856Y-72935779D01*
X148470437Y-72958834D01*
X148464773Y-72981443D01*
X148456921Y-73003387D01*
X148446956Y-73024457D01*
X148434974Y-73044448D01*
X148421090Y-73063168D01*
X148405438Y-73080438D01*
X148388168Y-73096090D01*
X148369448Y-73109974D01*
X148349457Y-73121956D01*
X148328387Y-73131921D01*
X148306443Y-73139773D01*
X148283834Y-73145437D01*
X148260779Y-73148856D01*
X148237500Y-73150000D01*
X147762500Y-73150000D01*
X147739221Y-73148856D01*
X147716166Y-73145437D01*
X147693557Y-73139773D01*
X147671613Y-73131921D01*
X147650543Y-73121956D01*
X147630552Y-73109974D01*
X147611832Y-73096090D01*
X147594562Y-73080438D01*
X147578910Y-73063168D01*
X147565026Y-73044448D01*
X147553044Y-73024457D01*
X147543079Y-73003387D01*
X147535227Y-72981443D01*
X147529563Y-72958834D01*
X147526144Y-72935779D01*
X147525000Y-72912500D01*
X147525000Y-72337500D01*
X147526144Y-72314221D01*
X147529563Y-72291166D01*
X147535227Y-72268557D01*
X147543079Y-72246613D01*
X147553044Y-72225543D01*
X147565026Y-72205552D01*
X147578910Y-72186832D01*
X147594562Y-72169562D01*
X147611832Y-72153910D01*
X147630552Y-72140026D01*
X147650543Y-72128044D01*
X147671613Y-72118079D01*
X147693557Y-72110227D01*
X147716166Y-72104563D01*
X147739221Y-72101144D01*
X147762500Y-72100000D01*
X148237500Y-72100000D01*
X148260779Y-72101144D01*
X148260779Y-72101144D01*
G37*
D13*
X148000000Y-72625000D03*
D10*
G36*
X148260779Y-73851144D02*
G01*
X148283834Y-73854563D01*
X148306443Y-73860227D01*
X148328387Y-73868079D01*
X148349457Y-73878044D01*
X148369448Y-73890026D01*
X148388168Y-73903910D01*
X148405438Y-73919562D01*
X148421090Y-73936832D01*
X148434974Y-73955552D01*
X148446956Y-73975543D01*
X148456921Y-73996613D01*
X148464773Y-74018557D01*
X148470437Y-74041166D01*
X148473856Y-74064221D01*
X148475000Y-74087500D01*
X148475000Y-74662500D01*
X148473856Y-74685779D01*
X148470437Y-74708834D01*
X148464773Y-74731443D01*
X148456921Y-74753387D01*
X148446956Y-74774457D01*
X148434974Y-74794448D01*
X148421090Y-74813168D01*
X148405438Y-74830438D01*
X148388168Y-74846090D01*
X148369448Y-74859974D01*
X148349457Y-74871956D01*
X148328387Y-74881921D01*
X148306443Y-74889773D01*
X148283834Y-74895437D01*
X148260779Y-74898856D01*
X148237500Y-74900000D01*
X147762500Y-74900000D01*
X147739221Y-74898856D01*
X147716166Y-74895437D01*
X147693557Y-74889773D01*
X147671613Y-74881921D01*
X147650543Y-74871956D01*
X147630552Y-74859974D01*
X147611832Y-74846090D01*
X147594562Y-74830438D01*
X147578910Y-74813168D01*
X147565026Y-74794448D01*
X147553044Y-74774457D01*
X147543079Y-74753387D01*
X147535227Y-74731443D01*
X147529563Y-74708834D01*
X147526144Y-74685779D01*
X147525000Y-74662500D01*
X147525000Y-74087500D01*
X147526144Y-74064221D01*
X147529563Y-74041166D01*
X147535227Y-74018557D01*
X147543079Y-73996613D01*
X147553044Y-73975543D01*
X147565026Y-73955552D01*
X147578910Y-73936832D01*
X147594562Y-73919562D01*
X147611832Y-73903910D01*
X147630552Y-73890026D01*
X147650543Y-73878044D01*
X147671613Y-73868079D01*
X147693557Y-73860227D01*
X147716166Y-73854563D01*
X147739221Y-73851144D01*
X147762500Y-73850000D01*
X148237500Y-73850000D01*
X148260779Y-73851144D01*
X148260779Y-73851144D01*
G37*
D13*
X148000000Y-74375000D03*
D10*
G36*
X147074504Y-59201204D02*
G01*
X147098773Y-59204804D01*
X147122571Y-59210765D01*
X147145671Y-59219030D01*
X147167849Y-59229520D01*
X147188893Y-59242133D01*
X147208598Y-59256747D01*
X147226777Y-59273223D01*
X147243253Y-59291402D01*
X147257867Y-59311107D01*
X147270480Y-59332151D01*
X147280970Y-59354329D01*
X147289235Y-59377429D01*
X147295196Y-59401227D01*
X147298796Y-59425496D01*
X147300000Y-59450000D01*
X147300000Y-60550000D01*
X147298796Y-60574504D01*
X147295196Y-60598773D01*
X147289235Y-60622571D01*
X147280970Y-60645671D01*
X147270480Y-60667849D01*
X147257867Y-60688893D01*
X147243253Y-60708598D01*
X147226777Y-60726777D01*
X147208598Y-60743253D01*
X147188893Y-60757867D01*
X147167849Y-60770480D01*
X147145671Y-60780970D01*
X147122571Y-60789235D01*
X147098773Y-60795196D01*
X147074504Y-60798796D01*
X147050000Y-60800000D01*
X144550000Y-60800000D01*
X144525496Y-60798796D01*
X144501227Y-60795196D01*
X144477429Y-60789235D01*
X144454329Y-60780970D01*
X144432151Y-60770480D01*
X144411107Y-60757867D01*
X144391402Y-60743253D01*
X144373223Y-60726777D01*
X144356747Y-60708598D01*
X144342133Y-60688893D01*
X144329520Y-60667849D01*
X144319030Y-60645671D01*
X144310765Y-60622571D01*
X144304804Y-60598773D01*
X144301204Y-60574504D01*
X144300000Y-60550000D01*
X144300000Y-59450000D01*
X144301204Y-59425496D01*
X144304804Y-59401227D01*
X144310765Y-59377429D01*
X144319030Y-59354329D01*
X144329520Y-59332151D01*
X144342133Y-59311107D01*
X144356747Y-59291402D01*
X144373223Y-59273223D01*
X144391402Y-59256747D01*
X144411107Y-59242133D01*
X144432151Y-59229520D01*
X144454329Y-59219030D01*
X144477429Y-59210765D01*
X144501227Y-59204804D01*
X144525496Y-59201204D01*
X144550000Y-59200000D01*
X147050000Y-59200000D01*
X147074504Y-59201204D01*
X147074504Y-59201204D01*
G37*
D14*
X145800000Y-60000000D03*
D10*
G36*
X151474504Y-59201204D02*
G01*
X151498773Y-59204804D01*
X151522571Y-59210765D01*
X151545671Y-59219030D01*
X151567849Y-59229520D01*
X151588893Y-59242133D01*
X151608598Y-59256747D01*
X151626777Y-59273223D01*
X151643253Y-59291402D01*
X151657867Y-59311107D01*
X151670480Y-59332151D01*
X151680970Y-59354329D01*
X151689235Y-59377429D01*
X151695196Y-59401227D01*
X151698796Y-59425496D01*
X151700000Y-59450000D01*
X151700000Y-60550000D01*
X151698796Y-60574504D01*
X151695196Y-60598773D01*
X151689235Y-60622571D01*
X151680970Y-60645671D01*
X151670480Y-60667849D01*
X151657867Y-60688893D01*
X151643253Y-60708598D01*
X151626777Y-60726777D01*
X151608598Y-60743253D01*
X151588893Y-60757867D01*
X151567849Y-60770480D01*
X151545671Y-60780970D01*
X151522571Y-60789235D01*
X151498773Y-60795196D01*
X151474504Y-60798796D01*
X151450000Y-60800000D01*
X148950000Y-60800000D01*
X148925496Y-60798796D01*
X148901227Y-60795196D01*
X148877429Y-60789235D01*
X148854329Y-60780970D01*
X148832151Y-60770480D01*
X148811107Y-60757867D01*
X148791402Y-60743253D01*
X148773223Y-60726777D01*
X148756747Y-60708598D01*
X148742133Y-60688893D01*
X148729520Y-60667849D01*
X148719030Y-60645671D01*
X148710765Y-60622571D01*
X148704804Y-60598773D01*
X148701204Y-60574504D01*
X148700000Y-60550000D01*
X148700000Y-59450000D01*
X148701204Y-59425496D01*
X148704804Y-59401227D01*
X148710765Y-59377429D01*
X148719030Y-59354329D01*
X148729520Y-59332151D01*
X148742133Y-59311107D01*
X148756747Y-59291402D01*
X148773223Y-59273223D01*
X148791402Y-59256747D01*
X148811107Y-59242133D01*
X148832151Y-59229520D01*
X148854329Y-59219030D01*
X148877429Y-59210765D01*
X148901227Y-59204804D01*
X148925496Y-59201204D01*
X148950000Y-59200000D01*
X151450000Y-59200000D01*
X151474504Y-59201204D01*
X151474504Y-59201204D01*
G37*
D14*
X150200000Y-60000000D03*
D10*
G36*
X132835779Y-72126144D02*
G01*
X132858834Y-72129563D01*
X132881443Y-72135227D01*
X132903387Y-72143079D01*
X132924457Y-72153044D01*
X132944448Y-72165026D01*
X132963168Y-72178910D01*
X132980438Y-72194562D01*
X132996090Y-72211832D01*
X133009974Y-72230552D01*
X133021956Y-72250543D01*
X133031921Y-72271613D01*
X133039773Y-72293557D01*
X133045437Y-72316166D01*
X133048856Y-72339221D01*
X133050000Y-72362500D01*
X133050000Y-72837500D01*
X133048856Y-72860779D01*
X133045437Y-72883834D01*
X133039773Y-72906443D01*
X133031921Y-72928387D01*
X133021956Y-72949457D01*
X133009974Y-72969448D01*
X132996090Y-72988168D01*
X132980438Y-73005438D01*
X132963168Y-73021090D01*
X132944448Y-73034974D01*
X132924457Y-73046956D01*
X132903387Y-73056921D01*
X132881443Y-73064773D01*
X132858834Y-73070437D01*
X132835779Y-73073856D01*
X132812500Y-73075000D01*
X132237500Y-73075000D01*
X132214221Y-73073856D01*
X132191166Y-73070437D01*
X132168557Y-73064773D01*
X132146613Y-73056921D01*
X132125543Y-73046956D01*
X132105552Y-73034974D01*
X132086832Y-73021090D01*
X132069562Y-73005438D01*
X132053910Y-72988168D01*
X132040026Y-72969448D01*
X132028044Y-72949457D01*
X132018079Y-72928387D01*
X132010227Y-72906443D01*
X132004563Y-72883834D01*
X132001144Y-72860779D01*
X132000000Y-72837500D01*
X132000000Y-72362500D01*
X132001144Y-72339221D01*
X132004563Y-72316166D01*
X132010227Y-72293557D01*
X132018079Y-72271613D01*
X132028044Y-72250543D01*
X132040026Y-72230552D01*
X132053910Y-72211832D01*
X132069562Y-72194562D01*
X132086832Y-72178910D01*
X132105552Y-72165026D01*
X132125543Y-72153044D01*
X132146613Y-72143079D01*
X132168557Y-72135227D01*
X132191166Y-72129563D01*
X132214221Y-72126144D01*
X132237500Y-72125000D01*
X132812500Y-72125000D01*
X132835779Y-72126144D01*
X132835779Y-72126144D01*
G37*
D13*
X132525000Y-72600000D03*
D10*
G36*
X134585779Y-72126144D02*
G01*
X134608834Y-72129563D01*
X134631443Y-72135227D01*
X134653387Y-72143079D01*
X134674457Y-72153044D01*
X134694448Y-72165026D01*
X134713168Y-72178910D01*
X134730438Y-72194562D01*
X134746090Y-72211832D01*
X134759974Y-72230552D01*
X134771956Y-72250543D01*
X134781921Y-72271613D01*
X134789773Y-72293557D01*
X134795437Y-72316166D01*
X134798856Y-72339221D01*
X134800000Y-72362500D01*
X134800000Y-72837500D01*
X134798856Y-72860779D01*
X134795437Y-72883834D01*
X134789773Y-72906443D01*
X134781921Y-72928387D01*
X134771956Y-72949457D01*
X134759974Y-72969448D01*
X134746090Y-72988168D01*
X134730438Y-73005438D01*
X134713168Y-73021090D01*
X134694448Y-73034974D01*
X134674457Y-73046956D01*
X134653387Y-73056921D01*
X134631443Y-73064773D01*
X134608834Y-73070437D01*
X134585779Y-73073856D01*
X134562500Y-73075000D01*
X133987500Y-73075000D01*
X133964221Y-73073856D01*
X133941166Y-73070437D01*
X133918557Y-73064773D01*
X133896613Y-73056921D01*
X133875543Y-73046956D01*
X133855552Y-73034974D01*
X133836832Y-73021090D01*
X133819562Y-73005438D01*
X133803910Y-72988168D01*
X133790026Y-72969448D01*
X133778044Y-72949457D01*
X133768079Y-72928387D01*
X133760227Y-72906443D01*
X133754563Y-72883834D01*
X133751144Y-72860779D01*
X133750000Y-72837500D01*
X133750000Y-72362500D01*
X133751144Y-72339221D01*
X133754563Y-72316166D01*
X133760227Y-72293557D01*
X133768079Y-72271613D01*
X133778044Y-72250543D01*
X133790026Y-72230552D01*
X133803910Y-72211832D01*
X133819562Y-72194562D01*
X133836832Y-72178910D01*
X133855552Y-72165026D01*
X133875543Y-72153044D01*
X133896613Y-72143079D01*
X133918557Y-72135227D01*
X133941166Y-72129563D01*
X133964221Y-72126144D01*
X133987500Y-72125000D01*
X134562500Y-72125000D01*
X134585779Y-72126144D01*
X134585779Y-72126144D01*
G37*
D13*
X134275000Y-72600000D03*
D10*
G36*
X148435779Y-69526144D02*
G01*
X148458834Y-69529563D01*
X148481443Y-69535227D01*
X148503387Y-69543079D01*
X148524457Y-69553044D01*
X148544448Y-69565026D01*
X148563168Y-69578910D01*
X148580438Y-69594562D01*
X148596090Y-69611832D01*
X148609974Y-69630552D01*
X148621956Y-69650543D01*
X148631921Y-69671613D01*
X148639773Y-69693557D01*
X148645437Y-69716166D01*
X148648856Y-69739221D01*
X148650000Y-69762500D01*
X148650000Y-70237500D01*
X148648856Y-70260779D01*
X148645437Y-70283834D01*
X148639773Y-70306443D01*
X148631921Y-70328387D01*
X148621956Y-70349457D01*
X148609974Y-70369448D01*
X148596090Y-70388168D01*
X148580438Y-70405438D01*
X148563168Y-70421090D01*
X148544448Y-70434974D01*
X148524457Y-70446956D01*
X148503387Y-70456921D01*
X148481443Y-70464773D01*
X148458834Y-70470437D01*
X148435779Y-70473856D01*
X148412500Y-70475000D01*
X147837500Y-70475000D01*
X147814221Y-70473856D01*
X147791166Y-70470437D01*
X147768557Y-70464773D01*
X147746613Y-70456921D01*
X147725543Y-70446956D01*
X147705552Y-70434974D01*
X147686832Y-70421090D01*
X147669562Y-70405438D01*
X147653910Y-70388168D01*
X147640026Y-70369448D01*
X147628044Y-70349457D01*
X147618079Y-70328387D01*
X147610227Y-70306443D01*
X147604563Y-70283834D01*
X147601144Y-70260779D01*
X147600000Y-70237500D01*
X147600000Y-69762500D01*
X147601144Y-69739221D01*
X147604563Y-69716166D01*
X147610227Y-69693557D01*
X147618079Y-69671613D01*
X147628044Y-69650543D01*
X147640026Y-69630552D01*
X147653910Y-69611832D01*
X147669562Y-69594562D01*
X147686832Y-69578910D01*
X147705552Y-69565026D01*
X147725543Y-69553044D01*
X147746613Y-69543079D01*
X147768557Y-69535227D01*
X147791166Y-69529563D01*
X147814221Y-69526144D01*
X147837500Y-69525000D01*
X148412500Y-69525000D01*
X148435779Y-69526144D01*
X148435779Y-69526144D01*
G37*
D13*
X148125000Y-70000000D03*
D10*
G36*
X150185779Y-69526144D02*
G01*
X150208834Y-69529563D01*
X150231443Y-69535227D01*
X150253387Y-69543079D01*
X150274457Y-69553044D01*
X150294448Y-69565026D01*
X150313168Y-69578910D01*
X150330438Y-69594562D01*
X150346090Y-69611832D01*
X150359974Y-69630552D01*
X150371956Y-69650543D01*
X150381921Y-69671613D01*
X150389773Y-69693557D01*
X150395437Y-69716166D01*
X150398856Y-69739221D01*
X150400000Y-69762500D01*
X150400000Y-70237500D01*
X150398856Y-70260779D01*
X150395437Y-70283834D01*
X150389773Y-70306443D01*
X150381921Y-70328387D01*
X150371956Y-70349457D01*
X150359974Y-70369448D01*
X150346090Y-70388168D01*
X150330438Y-70405438D01*
X150313168Y-70421090D01*
X150294448Y-70434974D01*
X150274457Y-70446956D01*
X150253387Y-70456921D01*
X150231443Y-70464773D01*
X150208834Y-70470437D01*
X150185779Y-70473856D01*
X150162500Y-70475000D01*
X149587500Y-70475000D01*
X149564221Y-70473856D01*
X149541166Y-70470437D01*
X149518557Y-70464773D01*
X149496613Y-70456921D01*
X149475543Y-70446956D01*
X149455552Y-70434974D01*
X149436832Y-70421090D01*
X149419562Y-70405438D01*
X149403910Y-70388168D01*
X149390026Y-70369448D01*
X149378044Y-70349457D01*
X149368079Y-70328387D01*
X149360227Y-70306443D01*
X149354563Y-70283834D01*
X149351144Y-70260779D01*
X149350000Y-70237500D01*
X149350000Y-69762500D01*
X149351144Y-69739221D01*
X149354563Y-69716166D01*
X149360227Y-69693557D01*
X149368079Y-69671613D01*
X149378044Y-69650543D01*
X149390026Y-69630552D01*
X149403910Y-69611832D01*
X149419562Y-69594562D01*
X149436832Y-69578910D01*
X149455552Y-69565026D01*
X149475543Y-69553044D01*
X149496613Y-69543079D01*
X149518557Y-69535227D01*
X149541166Y-69529563D01*
X149564221Y-69526144D01*
X149587500Y-69525000D01*
X150162500Y-69525000D01*
X150185779Y-69526144D01*
X150185779Y-69526144D01*
G37*
D13*
X149875000Y-70000000D03*
M02*
